<svg width="30" height="30" viewBox="0 0 30 30" fill="none" xmlns="http://www.w3.org/2000/svg">
<path d="M27.0837 9.47795V16.7279C27.0837 18.5404 26.4795 20.0509 25.4162 21.1142C24.3649 22.1655 22.8545 22.7696 21.042 22.7696V25.3434C21.042 26.31 19.9666 26.8901 19.1691 26.3584L13.792 22.7696H11.2303C11.327 22.4071 11.3753 22.0325 11.3753 21.6459C11.3753 20.4134 10.9041 19.2776 10.1307 18.4196C9.26074 17.4288 7.96783 16.8125 6.54199 16.8125C5.18866 16.8125 3.95616 17.3684 3.07408 18.2746C2.96533 17.7913 2.91699 17.2717 2.91699 16.7279V9.47795C2.91699 5.85295 5.33366 3.43628 8.95866 3.43628H21.042C24.667 3.43628 27.0837 5.85295 27.0837 9.47795Z" stroke="#18B204" stroke-width="1.5" stroke-miterlimit="10" stroke-linecap="round" stroke-linejoin="round"/>
<path d="M11.3747 21.6458C11.3747 23.0958 10.7343 24.3887 9.73136 25.2708C8.87344 26.02 7.76176 26.4792 6.54134 26.4792C3.87092 26.4792 1.70801 24.3162 1.70801 21.6458C1.70801 20.1233 2.40884 18.7579 3.52051 17.8758C4.35426 17.2113 5.40551 16.8125 6.54134 16.8125C9.21176 16.8125 11.3747 18.9754 11.3747 21.6458Z" stroke="#18B204" stroke-width="1.5" stroke-miterlimit="10" stroke-linecap="round" stroke-linejoin="round"/>
<path d="M6.84342 20.1355V21.948L5.33301 22.8542" stroke="#18B204" stroke-width="1.5" stroke-miterlimit="10" stroke-linecap="round" stroke-linejoin="round"/>
<path d="M10.7705 13.1875H19.2288" stroke="#18B204" stroke-width="1.5" stroke-miterlimit="10" stroke-linecap="round" stroke-linejoin="round"/>
</svg>
