<svg width="29" height="30" viewBox="0 0 29 30" fill="none" xmlns="http://www.w3.org/2000/svg">
<path d="M18.7756 6.93688L20.45 10.2856C20.6756 10.7487 21.2812 11.1881 21.7919 11.2831L24.82 11.7819C26.7556 12.1025 27.2069 13.5037 25.8175 14.905L23.4544 17.2681C23.0625 17.66 22.8369 18.4319 22.9675 18.99L23.6444 21.9113C24.1787 24.215 22.9438 25.1175 20.9131 23.9062L18.075 22.22C17.5644 21.9112 16.7094 21.9112 16.1988 22.22L13.3606 23.9062C11.33 25.1056 10.095 24.215 10.6294 21.9113L11.3063 18.99C11.4369 18.4437 11.2113 17.6719 10.8194 17.2681L8.45627 14.905C7.06689 13.5156 7.51814 12.1144 9.45376 11.7819L12.4819 11.2831C12.9925 11.2 13.5981 10.7487 13.8238 10.2856L15.4981 6.93688C16.3888 5.12 17.8613 5.12 18.7756 6.93688Z" stroke="#52C343" stroke-width="1.78125" stroke-linecap="round" stroke-linejoin="round"/>
<path d="M10 6.6875H2.875" stroke="#52C343" stroke-width="1.78125" stroke-linecap="round" stroke-linejoin="round"/>
<path d="M6.4375 23.3125H2.875" stroke="#52C343" stroke-width="1.78125" stroke-linecap="round" stroke-linejoin="round"/>
<path d="M4.0625 15H2.875" stroke="#52C343" stroke-width="1.78125" stroke-linecap="round" stroke-linejoin="round"/>
</svg>
